<?xml version="1.0" standalone="no"?>
<!DOCTYPE svg PUBLIC "-//W3C//DTD SVG 20010904//EN"
 "http://www.w3.org/TR/2001/REC-SVG-20010904/DTD/svg10.dtd">
<svg version="1.0" xmlns="http://www.w3.org/2000/svg"
 width="700.000000pt" height="700.000000pt" viewBox="0 0 700.000000 700.000000"
 preserveAspectRatio="xMidYMid meet">
<metadata>
Created by potrace 1.14, written by Peter Selinger 2001-2017
</metadata>
<g transform="translate(0.000000,700.000000) scale(0.100000,-0.100000)"
fill="#000000" stroke="none">
<path d="M1950 6339 c-277 -4 -366 -9 -405 -21 -285 -87 -479 -278 -567 -558
l-23 -75 0 -2185 0 -2185 23 -75 c77 -242 237 -424 460 -518 155 -67 7 -63
2334 -62 1876 0 2113 2 2146 16 167 69 177 304 17 392 -28 16 -198 17 -2145
22 l-2115 5 -57 23 c-76 31 -156 105 -193 179 -28 53 -30 66 -30 163 0 102 1
107 36 170 43 77 113 139 193 169 l57 21 2082 0 c1456 0 2094 3 2122 11 63 17
112 56 140 112 l25 51 0 2007 c0 1973 0 2008 -20 2070 -24 79 -79 152 -150
202 -103 72 29 67 -1865 69 -940 2 -1870 0 -2065 -3z m160 -1484 c0 -712 3
-1070 11 -1104 19 -90 85 -156 177 -176 69 -15 118 9 447 220 l318 203 36 -23
c20 -12 164 -104 319 -204 156 -99 303 -186 325 -192 93 -25 206 32 248 126
18 38 19 97 19 1123 l0 1082 800 0 800 0 0 -1825 0 -1825 -1962 0 c-1309 0
-1984 -4 -2027 -11 -54 -8 -142 -35 -214 -64 -16 -7 -17 75 -15 1726 l3 1734
29 58 c51 100 149 175 259 196 23 5 129 9 235 10 l192 1 0 -1055z m1460 200
c0 -470 -2 -855 -5 -855 -3 0 -96 58 -208 130 -222 142 -269 161 -343 141 -23
-6 -130 -67 -238 -136 -108 -69 -203 -128 -211 -131 -13 -5 -15 100 -15 843 0
467 3 853 7 856 3 4 233 7 510 7 l503 0 0 -855z"/>
</g>
</svg>
